<mxfile host="app.diagrams.net" modified="2023-05-13T16:33:53.980Z" agent="Mozilla/5.0 (Macintosh; Intel Mac OS X 10.15; rv:109.0) Gecko/20100101 Firefox/112.0" version="21.2.1" etag="3VJA7OWYOAz8Ii-okqcS" type="github">
  <diagram name="Page-1" id="gWOQzrso8Atp6gNEhlsF">
    <mxGraphModel>
      <root>
        <mxCell id="0" />
        <mxCell id="1" parent="0" />
      </root>
    </mxGraphModel>
  </diagram>
</mxfile>
